<?xml version="1.0" standalone="no"?>
<!DOCTYPE svg PUBLIC "-//W3C//DTD SVG 20010904//EN"
 "http://www.w3.org/TR/2001/REC-SVG-20010904/DTD/svg10.dtd">
<svg version="1.0" xmlns="http://www.w3.org/2000/svg"
 width="771.000000pt" height="324.000000pt" viewBox="0 0 771.000000 324.000000"
 preserveAspectRatio="xMidYMid meet">

<g transform="translate(0.000000,324.000000) scale(0.100000,-0.100000)"
fill="#ff0000" stroke="none">
<path d="M800 1619 l0 -821 29 7 c16 3 73 12 127 18 l99 13 5 442 5 443 37
-108 c20 -59 67 -193 103 -298 36 -104 85 -246 108 -314 l42 -123 85 6 c47 4
109 10 138 13 l52 6 0 768 0 769 -125 0 -125 0 -2 -461 -3 -462 -33 94 c-89
251 -143 403 -176 494 -68 186 -98 270 -109 303 l-10 32 -124 0 -123 0 0 -821z"/>
<path d="M1890 1684 l0 -756 53 6 c28 3 113 10 187 16 74 5 210 15 303 21
l167 13 0 123 c0 112 -2 123 -18 123 -10 0 -79 -4 -153 -10 -73 -5 -169 -12
-211 -15 l-78 -5 0 195 0 195 175 0 175 0 0 125 0 125 -175 0 -175 0 0 175 0
175 230 0 230 0 0 125 0 125 -355 0 -355 0 0 -756z"/>
<path d="M2770 2315 l0 -125 135 0 135 0 0 -596 0 -597 38 7 c20 3 76 6 125 6
l87 0 0 590 0 590 135 0 135 0 0 125 0 125 -395 0 -395 0 0 -125z"/>
<path d="M3730 1730 l0 -710 125 0 125 0 0 290 0 290 175 0 175 0 0 125 0 125
-175 0 -175 0 0 170 0 170 230 0 230 0 0 125 0 125 -355 0 -355 0 0 -710z"/>
<path d="M4610 1726 c0 -642 2 -714 16 -720 9 -3 50 -6 92 -6 42 0 151 -4 242
-10 91 -5 207 -12 258 -15 l92 -5 0 124 0 124 -107 7 c-60 4 -160 11 -223 14
l-115 6 -3 598 -2 597 -125 0 -125 0 0 -714z"/>
<path d="M5520 1696 l0 -743 116 -7 c64 -4 123 -10 130 -13 12 -4 14 114 14
751 l0 756 -130 0 -130 0 0 -744z"/>
<path d="M6003 2433 c3 -5 17 -39 32 -78 15 -38 42 -108 60 -155 18 -47 59
-150 89 -230 31 -80 70 -180 87 -222 l30 -77 -27 -63 c-14 -35 -34 -81 -44
-103 -64 -140 -250 -576 -250 -584 0 -10 251 -34 260 -24 5 4 28 55 53 113 25
58 56 130 70 160 13 30 34 78 47 105 l21 50 40 -100 c22 -55 58 -147 80 -205
73 -190 66 -178 118 -185 25 -3 89 -12 141 -20 52 -8 95 -13 97 -12 1 2 -17
52 -41 112 -63 162 -145 372 -171 440 -13 33 -44 113 -69 178 -25 64 -46 123
-46 130 0 7 74 185 164 395 l164 383 -140 -3 -140 -3 -90 -213 c-50 -116 -94
-210 -97 -207 -2 3 -21 49 -41 103 -20 53 -56 148 -80 210 l-43 112 -139 0
c-77 0 -137 -3 -135 -7z"/>
</g>
</svg>
